<svg xmlns="http://www.w3.org/2000/svg" width="48" height="48" viewBox="0 0 48 48">
    <g data-name="그룹 46867">
        <path data-name="사각형 25544" style="fill:none" d="M0 0h48v48H0z"/>
        <g data-name="그룹 46899">
            <g data-name="그룹 46893" style="opacity:.2">
                <path data-name="패스 61293" d="M190.785 299.207a.819.819 0 0 1 .818-.818h11.458a.819.819 0 0 1 .818.818v6.2c0 .818-1.664 1.792-2.48 1.726-2.17-.172-5.51.377-9.687.949a.821.821 0 0 1-.928-.81z" transform="translate(-175.128 -277.845)" style="fill:#05f"/>
            </g>
            <g data-name="그룹 46894">
                <path data-name="패스 61294" d="M192.743 302.022h-4.911a2.868 2.868 0 0 1-2.865-2.865v-12.825a.409.409 0 0 1 .409-.409h7.212a2.042 2.042 0 0 1 1.578.744l1.527 1.848h9.327a.409.409 0 0 1 .409.409v2.729a.409.409 0 0 1-.818 0v-2.32H195.5a.409.409 0 0 1-.316-.148l-1.65-2a1.223 1.223 0 0 0-.946-.446h-6.8v12.416a2.048 2.048 0 0 0 2.046 2.046h4.911a.409.409 0 0 1 0 .818z" transform="translate(-172.175 -271.518)" style="fill:#04c"/>
            </g>
            <g data-name="그룹 46895">
                <path data-name="패스 61295" d="M194.187 291.45h-3.547a.409.409 0 0 1 0-.818h3.547a.409.409 0 0 1 0 .818z" transform="translate(-174.847 -273.908)" style="fill:#04c"/>
            </g>
            <g data-name="그룹 46896">
                <path data-name="패스 61296" d="M187.988 304.371a.4.4 0 0 1-.2-.055l-18.43-10.64a.408.408 0 0 1-.2-.354v-21.28a.408.408 0 0 1 .2-.354l18.43-10.64a.406.406 0 0 1 .409 0l18.429 10.64a.409.409 0 0 1 .2.354v21.28a.409.409 0 0 1-.2.354l-18.429 10.64a.406.406 0 0 1-.209.055zm-18.02-11.286 18.02 10.4 18.02-10.4v-20.807l-18.02-10.4-18.02 10.4z" transform="translate(-164.147 -258.864)" style="fill:#04c"/>
            </g>
            <g data-name="그룹 46897">
                <path data-name="패스 61297" d="M216.792 320.021H202a.41.41 0 0 1-.407-.451l.228-2.234a.2.2 0 0 1 0-.026 3.479 3.479 0 0 1 4.2-2.82l2.237.508a4.929 4.929 0 0 0 2.137.008l2.272-.516a3.567 3.567 0 0 1 4.3 2.81l.23 1.435v.876a.409.409 0 0 1-.405.41zm-14.342-.821h13.933v-.4l-.223-1.359a2.751 2.751 0 0 0-3.309-2.154l-2.272.516a5.7 5.7 0 0 1-2.5-.008l-2.239-.508a2.661 2.661 0 0 0-3.214 2.145z" transform="translate(-180.611 -285.972)" style="fill:#04c"/>
            </g>
            <g data-name="그룹 46898" style="opacity:.8">
                <path data-name="패스 61298" d="M209 301.139a3.581 3.581 0 1 1 7.162 0v.556a1.035 1.035 0 0 1 .767.978 1.057 1.057 0 0 1-1.087 1.023h-.025a3.582 3.582 0 0 1-6.473 0h-.025a1.057 1.057 0 0 1-1.087-1.023 1.035 1.035 0 0 1 .768-.973z" transform="translate(-183.986 -277.423)" style="fill:#fff;fill-rule:evenodd"/>
                <path data-name="패스 61299" d="M212.163 305.73a4.014 4.014 0 0 1-3.5-2.067 1.454 1.454 0 0 1-1.26-1.411 1.433 1.433 0 0 1 .768-1.25v-.285a3.99 3.99 0 0 1 7.98 0V301a1.434 1.434 0 0 1 .767 1.25 1.455 1.455 0 0 1-1.262 1.414 4.009 4.009 0 0 1-3.493 2.066zm0-8.184a3.175 3.175 0 0 0-3.172 3.171v.865l-.3.086a.629.629 0 0 0-.472.585.649.649 0 0 0 .678.614h.259l.135.233a3.174 3.174 0 0 0 5.734 0l.111-.234h.259a.656.656 0 0 0 .7-.614.628.628 0 0 0-.471-.585l-.3-.086v-.865a3.175 3.175 0 0 0-3.161-3.171z" transform="translate(-183.564 -277.001)" style="fill:#ff6b00"/>
            </g>
        </g>
    </g>
</svg>
