<svg xmlns="http://www.w3.org/2000/svg" width="48" height="48" viewBox="0 0 48 48">
    <g data-name="그룹 46867">
        <path data-name="사각형 25544" transform="translate(1 14)" style="fill:none" d="M0 0h23v23H0z"/>
        <g data-name="그룹 46902">
            <path data-name="사각형 25546" style="fill:none" d="M0 0h48v48H0z"/>
            <g data-name="그룹 46933">
                <g data-name="그룹 46925" transform="translate(18.406 20.803)" style="opacity:.2">
                    <rect data-name="사각형 25557" width="5.594" height="11.988" rx="1.662" style="fill:#05f"/>
                </g>
                <g data-name="그룹 46926">
                    <path data-name="패스 61307" d="M1695.023 303.349a.4.4 0 0 1-.2-.054l-18-10.389a.4.4 0 0 1-.2-.346v-20.779a.4.4 0 0 1 .2-.346l18-10.389a.4.4 0 0 1 .4 0l18 10.389a.4.4 0 0 1 .2.346v20.779a.4.4 0 0 1-.2.346l-18 10.389a.4.4 0 0 1-.2.054zm-17.6-11.02 17.6 10.159 17.6-10.159v-20.316l-17.6-10.159-17.6 10.159z" transform="translate(-1671.023 -258.171)" style="fill:#04c"/>
                </g>
                <g data-name="그룹 46927" style="opacity:.9">
                    <path data-name="패스 61308" d="M1714.246 287.981a.4.4 0 0 1-.387-.3l-.232-.89a1.2 1.2 0 0 0-1.164-.9h-2.717a1.185 1.185 0 0 0-1.155.9l-.233.893a.4.4 0 0 1-.773-.2l.232-.89a1.981 1.981 0 0 1 1.929-1.5h2.717a2 2 0 0 1 1.937 1.5l.231.89a.4.4 0 0 1-.286.487.365.365 0 0 1-.099.01z" transform="translate(-1687.089 -270.682)" style="fill:#ff6b00"/>
                </g>
                <g data-name="그룹 46928">
                    <path data-name="패스 61309" d="M1711.472 309h-7.488a1.987 1.987 0 0 1-2-1.848l-.927-12.106a.4.4 0 0 1 .105-.3.4.4 0 0 1 .293-.128H1714a.4.4 0 0 1 .4.43l-.935 12.106a2.005 2.005 0 0 1-1.993 1.846zm-9.582-13.586.894 11.676a1.192 1.192 0 0 0 1.2 1.11h7.488a1.188 1.188 0 0 0 1.191-1.11l.9-11.676z" transform="translate(-1683.707 -275.628)" style="fill:#04c"/>
                </g>
                <g data-name="그룹 46929">
                    <path data-name="패스 61310" d="M1713.882 291.822a.4.4 0 0 1-.4-.4v-.4a.4.4 0 0 0-.4-.4H1700.3a.4.4 0 0 0-.4.4v.4a.4.4 0 0 1-.8 0v-.4a1.2 1.2 0 0 1 1.2-1.2h12.787a1.2 1.2 0 0 1 1.2 1.2v.4a.4.4 0 0 1-.405.4z" transform="translate(-1682.689 -273.139)" style="fill:#04c"/>
                </g>
                <g data-name="그룹 46930">
                    <path data-name="패스 61311" d="M1714.206 308.282a.4.4 0 0 1-.4-.4v-4.426a.4.4 0 0 1 .8 0v4.426a.4.4 0 0 1-.4.4z" transform="translate(-1690.325 -280.009)" style="fill:#04c"/>
                </g>
                <g data-name="그룹 46931">
                    <path data-name="패스 61312" d="M1708.223 308.195a.4.4 0 0 1-.4-.4v-6.513a.4.4 0 1 1 .8 0v6.518a.4.4 0 0 1-.4.395z" transform="translate(-1687.219 -278.88)" style="fill:#04c"/>
                </g>
                <g data-name="그룹 46932">
                    <path data-name="패스 61313" d="M1720.188 308.195a.4.4 0 0 1-.4-.4v-6.513a.4.4 0 0 1 .8 0v6.518a.4.4 0 0 1-.4.395z" transform="translate(-1693.431 -278.88)" style="fill:#04c"/>
                </g>
            </g>
        </g>
    </g>
</svg>
