<svg xmlns="http://www.w3.org/2000/svg" width="48" height="48" viewBox="0 0 48 48">
    <g data-name="그룹 46867">
        <path data-name="사각형 25544" transform="translate(1 1)" style="fill:none" d="M0 0h23v23H0z"/>
        <g data-name="그룹 46902">
            <path data-name="사각형 25546" style="fill:none" d="M0 0h48v48H0z"/>
            <g data-name="그룹 46985">
                <g data-name="그룹 46975">
                    <path data-name="패스 61343" d="M1029.725 475.808h-39.442a.428.428 0 0 1-.429-.429v-39.442a.429.429 0 0 1 .429-.429h39.443a.429.429 0 0 1 .429.429v39.442a.428.428 0 0 1-.43.429zm-39.014-.857h38.589v-38.586h-38.589z" transform="translate(-986.004 -431.658)" style="fill:#04c"/>
                </g>
                <g data-name="그룹 46978">
                    <g data-name="그룹 46976" style="opacity:.2">
                        <path data-name="패스 61344" d="m1003.982 452.857 12.465-6.545 12.465 6.545v9.981a17.223 17.223 0 0 1-8.006 11.8l-4.459 2.675-5.138-2.9a14.749 14.749 0 0 1-7.327-11.574z" transform="translate(-992.448 -437.06)" style="fill:#05f"/>
                    </g>
                    <g data-name="그룹 46977">
                        <path data-name="패스 61345" d="M1016.031 477.312a.409.409 0 0 1-.2-.052l-5.138-2.9a15.143 15.143 0 0 1-7.543-11.9v-10.01a.434.434 0 0 1 .229-.386l12.465-6.538a.4.4 0 0 1 .375 0l12.465 6.538a.434.434 0 0 1 .228.386v9.97a17.612 17.612 0 0 1-8.214 12.161l-4.459 2.673a.406.406 0 0 1-.208.058zm-12.049-24.6v9.7a14.264 14.264 0 0 0 7.11 11.182l4.933 2.783 4.258-2.553a16.737 16.737 0 0 0 7.8-11.49l-.007-9.625-12.05-6.321z" transform="translate(-992.032 -436.643)" style="fill:#04c"/>
                    </g>
                </g>
                <g data-name="그룹 46979">
                    <path data-name="패스 61346" d="m1008.968 479.553-1.662 3.324.831 1.246 2.493 2.908 4.986 2.909 2.493 1.247 1.663-.831 5.817-3.74 2.909-2.909-.416-1.662-1.662-2.909-2.493-1.662h-2.493l-3.74.415-3.324-.831-3.324.831z" transform="translate(-994.124 -451.192)" style="fill:#fff"/>
                </g>
                <g data-name="그룹 46981" style="opacity:.8">
                    <g data-name="그룹 46980">
                        <path data-name="패스 61347" d="M1019.535 489.318a2.414 2.414 0 0 1-.727.424 2.37 2.37 0 0 1-.834.15 2.322 2.322 0 0 1-.639-.083 2.706 2.706 0 0 1-.575-.241 2.509 2.509 0 0 1-.487-.382 2.456 2.456 0 0 1-.38-.491 2.406 2.406 0 0 1-.243-.573 2.436 2.436 0 0 1-.083-.639 2.485 2.485 0 0 1 .083-.64 2.414 2.414 0 0 1 .623-1.063 2.166 2.166 0 0 1 .487-.374 2.046 2.046 0 0 1 .575-.241 2.327 2.327 0 0 1 .639-.091 2.369 2.369 0 0 1 .834.15 2.28 2.28 0 0 1 .727.432l-.494.806a1.407 1.407 0 0 0-.484-.332 1.421 1.421 0 0 0-.584-.124 1.487 1.487 0 0 0-.578.116 1.631 1.631 0 0 0-.471.315 1.5 1.5 0 0 0-.435 1.048 1.392 1.392 0 0 0 .117.573 1.467 1.467 0 0 0 .789.789 1.487 1.487 0 0 0 .578.117 1.554 1.554 0 0 0 .584-.117 1.421 1.421 0 0 0 .484-.341zm1.474-3.25v1.862h.932a1.032 1.032 0 0 0 .359-.066.863.863 0 0 0 .3-.207.946.946 0 0 0 .2-.291.926.926 0 0 0 .075-.365.857.857 0 0 0-.075-.358.883.883 0 0 0-.2-.3.973.973 0 0 0-.3-.2.875.875 0 0 0-.359-.075zm0 3.723h-.932v-4.654h1.864a1.928 1.928 0 0 1 .492.066 1.67 1.67 0 0 1 .443.191 1.574 1.574 0 0 1 .376.291 1.767 1.767 0 0 1 .292.374 1.865 1.865 0 0 1 .189.449 1.721 1.721 0 0 1 .068.491 1.8 1.8 0 0 1-.146.723 1.86 1.86 0 0 1-.4.59 1.691 1.691 0 0 1-.594.4 1.757 1.757 0 0 1-.72.15h-.932zm7.9-2.31a2.319 2.319 0 0 1-.088.639 2.281 2.281 0 0 1-.24.573 2.346 2.346 0 0 1-.377.491 2.506 2.506 0 0 1-.487.382 2.624 2.624 0 0 1-.575.241 2.491 2.491 0 0 1-1.279 0 2.7 2.7 0 0 1-.574-.241 2.482 2.482 0 0 1-.487-.382 2.438 2.438 0 0 1-.38-.491 2.343 2.343 0 0 1-.243-.573 2.394 2.394 0 0 1-.085-.639 2.442 2.442 0 0 1 .085-.64 2.66 2.66 0 0 1 .243-.573 2.4 2.4 0 0 1 .38-.482 2.478 2.478 0 0 1 .487-.382 2.7 2.7 0 0 1 .574-.241 2.491 2.491 0 0 1 1.279 0 2.626 2.626 0 0 1 .575.241 2.5 2.5 0 0 1 .487.382 2.308 2.308 0 0 1 .377.482 2.577 2.577 0 0 1 .24.573 2.365 2.365 0 0 1 .089.64zm-.925 0a1.447 1.447 0 0 0-.117-.574 1.474 1.474 0 0 0-.318-.474 1.576 1.576 0 0 0-.472-.315 1.481 1.481 0 0 0-1.151 0 1.627 1.627 0 0 0-.472.315 1.484 1.484 0 0 0-.318.474 1.458 1.458 0 0 0-.116.574 1.4 1.4 0 0 0 .116.573 1.487 1.487 0 0 0 .318.474 1.465 1.465 0 0 0 .472.315 1.481 1.481 0 0 0 1.151 0 1.424 1.424 0 0 0 .472-.315 1.478 1.478 0 0 0 .318-.474 1.392 1.392 0 0 0 .117-.573z" transform="translate(-998.239 -455.541)" style="fill:#ff6b00"/>
                    </g>
                </g>
                <g data-name="그룹 46982">
                    <path data-name="패스 61348" d="M1019.82 460.389a4.106 4.106 0 0 1 8.212 0v.624a1.174 1.174 0 0 1 .88 1.113 1.21 1.21 0 0 1-1.246 1.172h-.032a4.111 4.111 0 0 1-7.415 0h-.032a1.21 1.21 0 0 1-1.247-1.172 1.174 1.174 0 0 1 .88-1.113z" transform="translate(-999.927 -441.617)" style="fill-rule:evenodd;fill:#fff"/>
                    <path data-name="패스 61349" d="M1023.51 465.633a4.553 4.553 0 0 1-3.97-2.354 1.616 1.616 0 0 1-1.432-1.569 1.576 1.576 0 0 1 .88-1.4v-.341a4.522 4.522 0 0 1 9.043 0v.341a1.576 1.576 0 0 1 .88 1.4 1.617 1.617 0 0 1-1.433 1.573 4.553 4.553 0 0 1-3.968 2.35zm0-9.349a3.7 3.7 0 0 0-3.69 3.69v.939l-.3.085a.76.76 0 0 0-.576.713.8.8 0 0 0 .831.756h.262l.145.236a3.7 3.7 0 0 0 6.666 0l.113-.236h.262a.807.807 0 0 0 .864-.756.76.76 0 0 0-.576-.713l-.3-.085v-.939a3.7 3.7 0 0 0-3.701-3.69z" transform="translate(-999.511 -441.202)" style="fill:#04c"/>
                </g>
                <g data-name="그룹 46983">
                    <path data-name="패스 61350" d="M1028.4 482.951a.416.416 0 0 1-.41-.351l-.015-.091a6.084 6.084 0 0 0-7.837-4.9 6.972 6.972 0 0 1-4.257-.043 6.063 6.063 0 0 0-5.186.645 5.988 5.988 0 0 0-2.751 4.369.421.421 0 0 1-.461.365.416.416 0 0 1-.365-.462 6.818 6.818 0 0 1 3.13-4.973 6.9 6.9 0 0 1 5.895-.732 6.13 6.13 0 0 0 3.747.039 6.914 6.914 0 0 1 8.907 5.562l.014.089a.416.416 0 0 1-.347.475.462.462 0 0 1-.064.008z" transform="translate(-994.018 -451.337)" style="fill:#04c"/>
                </g>
                <g data-name="그룹 46984">
                    <path data-name="패스 61351" d="M1016.031 477.312a.409.409 0 0 1-.2-.052l-5.138-2.9a15.143 15.143 0 0 1-7.543-11.9v-10.01a.434.434 0 0 1 .229-.386l12.465-6.538a.4.4 0 0 1 .375 0l12.465 6.538a.434.434 0 0 1 .228.386v9.97a17.612 17.612 0 0 1-8.214 12.161l-4.459 2.673a.406.406 0 0 1-.208.058zm-12.049-24.6v9.7a14.264 14.264 0 0 0 7.11 11.182l4.933 2.783 4.258-2.553a16.737 16.737 0 0 0 7.8-11.49l-.007-9.625-12.05-6.321z" transform="translate(-992.032 -436.643)" style="fill:#04c"/>
                </g>
            </g>
        </g>
    </g>
</svg>
