<svg xmlns="http://www.w3.org/2000/svg" width="48" height="48" viewBox="0 0 48 48">
    <g data-name="그룹 46908">
        <path data-name="사각형 25547" style="fill:none" d="M0 0h48v48H0z"/>
        <g data-name="그룹 46997">
            <g data-name="그룹 46988">
                <path data-name="패스 61352" d="M1578.505 475.808h-39.443a.428.428 0 0 1-.429-.429v-39.442a.429.429 0 0 1 .429-.429h39.443a.428.428 0 0 1 .429.429v39.443a.428.428 0 0 1-.429.428zm-39.014-.857h38.585v-38.586h-38.585z" transform="translate(-1534.784 -431.658)" style="fill:#04c"/>
            </g>
            <g data-name="그룹 46989">
                <path data-name="패스 61353" d="M1576.894 470.744h11.2v11.211l-3.083-3.332h-4.795a3.323 3.323 0 0 1-3.324-3.324z" transform="translate(-1553.061 -448.49)" style="fill-rule:evenodd;fill:#fff"/>
            </g>
            <g data-name="그룹 46990">
                <path data-name="패스 61354" d="M1587.68 470.328v-.415a.417.417 0 0 1 .416.415zm-11.2 0h-.416a.417.417 0 0 1 .416-.415zm11.2 11.211h.416a.414.414 0 0 1-.266.383.4.4 0 0 1-.457-.109zm-3.083-3.333v-.415a.421.421 0 0 1 .308.133zm3.083-7.462h-11.2v-.831h11.2zm-.415 6.856v-7.271h.831v7.271zm0 .607v-.607h.831v.607zm0 3.333v-3.333h.831v3.333zm-2.36-3.615 3.083 3.332-.615.556-3.075-3.324zm-5.1-.133h4.795v.831h-4.8zm-2.908-2.909a2.911 2.911 0 0 0 2.908 2.909v.831a3.74 3.74 0 0 1-3.74-3.74zm0-4.554v4.554h-.832v-4.554z" transform="translate(-1552.638 -448.07)" style="fill:#04c"/>
            </g>
            <g data-name="그룹 46991" style="opacity:.1">
                <path data-name="패스 61355" d="M1576.029 471.242h11.2v11.2l-3.083-3.333h-4.795a3.323 3.323 0 0 1-3.324-3.324z" transform="translate(-1552.648 -448.728)" style="fill:#05f;fill-rule:evenodd"/>
            </g>
            <g data-name="그룹 46992">
                <path data-name="패스 61356" d="M1559.409 457.946a3.323 3.323 0 0 0-3.324 3.324v12.681l4.4-4.762h8.277a3.323 3.323 0 0 0 3.324-3.324v-7.919z" transform="translate(-1543.039 -442.273)" style="fill-rule:evenodd;fill:#fff"/>
            </g>
            <g data-name="그룹 46993">
                <path data-name="패스 61357" d="M1555.669 473.536h-.415a.42.42 0 0 0 .723.282zm4.4-4.762v-.415a.42.42 0 0 0-.307.133zm11.6-11.244h.416a.412.412 0 0 0-.416-.416zm-15.59 3.324a2.912 2.912 0 0 1 2.909-2.909v-.831a3.734 3.734 0 0 0-3.74 3.74zm0 7.055v-7.055h-.831v7.055zm0 .865v-.865h-.831v.865zm0 4.762v-4.762h-.831v4.762zm3.682-5.044-4.4 4.762.615.565 4.4-4.761zm8.584-.133h-8.277v.831h8.277zm2.908-2.909a2.907 2.907 0 0 1-2.908 2.909v.831a3.74 3.74 0 0 0 3.74-3.74zm0-7.919v7.919h.831v-7.919zm-12.266.415h12.682v-.831h-12.682z" transform="translate(-1542.629 -441.858)" style="fill:#04c"/>
            </g>
            <g data-name="그룹 46994" transform="translate(17.408 20.396)" style="opacity:.8">
                <circle data-name="타원 16085" cx=".72" cy=".72" r=".72" style="fill:#ff6b00"/>
            </g>
            <g data-name="그룹 46995" transform="translate(20.713 20.396)" style="opacity:.8">
                <circle data-name="타원 16086" cx=".72" cy=".72" r=".72" style="fill:#ff6b00"/>
            </g>
            <g data-name="그룹 46996" transform="translate(24.026 20.396)" style="opacity:.8">
                <circle data-name="타원 16087" cx=".72" cy=".72" r=".72" style="fill:#ff6b00"/>
            </g>
        </g>
    </g>
</svg>
