<svg xmlns="http://www.w3.org/2000/svg" width="48" height="48" viewBox="0 0 48 48">
    <g data-name="그룹 46867">
        <path data-name="사각형 25544" transform="translate(1 14)" style="fill:none" d="M0 0h23v23H0z"/>
        <g data-name="그룹 46902">
            <path data-name="사각형 25546" style="fill:none" d="M0 0h48v48H0z"/>
            <g data-name="그룹 47049">
                <g data-name="그룹 47038" style="opacity:.2">
                    <path data-name="패스 61386" d="M453.54 463.631v-4.348l3.648-3.85.65-.581a.931.931 0 0 1 .612-.23h15.35v21.831a3.684 3.684 0 0 1-3.684 3.684H453.54z" transform="translate(-443.68 -441.962)" style="fill:#05f"/>
                </g>
                <g data-name="그룹 47039">
                    <path data-name="패스 61387" d="M460.188 461.149V457.2l3.316-3.5.568-.507a.929.929 0 0 1 .611-.23h13.927v19.519a3.69 3.69 0 0 1-3.684 3.684h-14.738z" transform="translate(-447.02 -440.879)" style="fill:#fff"/>
                </g>
                <g data-name="그룹 47040">
                    <path data-name="패스 61388" d="M480.946 475.808H441.5a.428.428 0 0 1-.429-.429v-39.442a.428.428 0 0 1 .429-.429h39.443a.429.429 0 0 1 .429.429v39.443a.428.428 0 0 1-.426.428zm-39.014-.857h38.585v-38.586h-38.585z" transform="translate(-437.225 -431.658)" style="fill:#04c"/>
                </g>
                <g data-name="그룹 47041">
                    <path data-name="패스 61389" d="M465.109 452.59v-.461h-.461v.461zm-5.291 4.237-.334-.313-.126.129v.184zm18.423-4.237h.461a.458.458 0 0 0-.461-.461zm-13.132 4.486v.461a.458.458 0 0 0 .461-.461zm-3.08-.461a.464.464 0 0 0-.461.461.458.458 0 0 0 .461.461zm1.44-2.975a.453.453 0 0 0-.018-.645.461.461 0 0 0-.651.018zm-3.651 22.153h-.461a.464.464 0 0 0 .461.461zm9.212.461a.464.464 0 0 0 .461-.461.458.458 0 0 0-.461-.461zm8.751-13.071a.461.461 0 1 0 .921 0zm-18.423-6.356v3.952h.921v-3.952zm18.883-4.7h-13.132v.921h13.131zm-13.592.461v4.486h.921v-4.484zm.461 4.025h-3.08v.921h3.08zm-4.956.525 3.316-3.5-.669-.627-3.316 3.5zm.126 18.653v-15.012h-.921v15.014zm-.461.461h9.212v-.921h-9.212zm17.961-23.662v10.593h.921V452.59z" transform="translate(-446.641 -440.506)" style="fill:#04c"/>
                </g>
                <g data-name="그룹 47042" style="opacity:.6">
                    <path data-name="패스 61390" d="M474.026 468.008h-5.066a.461.461 0 1 1 0-.921h5.066a.461.461 0 1 1 0 .921z" transform="translate(-450.67 -446.972)" style="fill:#ff6b00"/>
                </g>
                <g data-name="그룹 47043" style="opacity:.6">
                    <path data-name="패스 61391" d="M474.026 477.98h-5.066a.461.461 0 0 1 0-.921h5.066a.461.461 0 0 1 0 .921z" transform="translate(-450.67 -451.807)" style="fill:#ff6b00"/>
                </g>
                <g data-name="그룹 47044" style="opacity:.6">
                    <path data-name="패스 61392" d="M476.328 472.994h-7.368a.461.461 0 0 1 0-.921h7.369a.461.461 0 0 1 0 .921z" transform="translate(-450.75 -449.39)" style="fill:#ff6b00"/>
                </g>
                <g data-name="그룹 47045">
                    <path data-name="패스 61393" d="M481.374 481.757a.43.43 0 0 1-.07-.006.46.46 0 0 1-.385-.525 6.994 6.994 0 0 1 11.858-3.875 6.959 6.959 0 0 1 1.194 1.588.46.46 0 0 1-.809.441 6.077 6.077 0 0 0-9.625-1.38 5.975 5.975 0 0 0-1.708 3.364.46.46 0 0 1-.455.393z" transform="translate(-457.174 -451.189)" style="fill:#04c"/>
                </g>
                <g data-name="그룹 47046">
                    <path data-name="패스 61394" d="M501.4 479.943H498a.461.461 0 0 1 0-.921h2.942v-2.948a.461.461 0 0 1 .921 0v3.408a.461.461 0 0 1-.463.461z" transform="translate(-464.799 -451.244)" style="fill:#04c"/>
                </g>
                <g data-name="그룹 47047">
                    <path data-name="패스 61395" d="M488.479 494.805a6.97 6.97 0 0 1-4.945-2.045 7.249 7.249 0 0 1-1.194-1.6.46.46 0 1 1 .809-.441 6.364 6.364 0 0 0 1.04 1.391 6.073 6.073 0 0 0 10.293-3.378.461.461 0 0 1 .911.14 6.986 6.986 0 0 1-6.913 5.93z" transform="translate(-457.86 -457.591)" style="fill:#04c"/>
                </g>
                <g data-name="그룹 47048">
                    <path data-name="패스 61396" d="M481.98 496.2a.46.46 0 0 1-.461-.461v-3.408a.46.46 0 0 1 .461-.461h3.4a.461.461 0 0 1 0 .922h-2.94v2.947a.46.46 0 0 1-.46.461z" transform="translate(-456.976 -459.182)" style="fill:#04c"/>
                </g>
            </g>
        </g>
    </g>
</svg>
