<svg xmlns="http://www.w3.org/2000/svg" width="48" height="48" viewBox="0 0 48 48">
    <g data-name="그룹 46908">
        <path data-name="사각형 25547" style="fill:none" d="M0 0h48v48H0z"/>
        <g data-name="그룹 46943">
            <g data-name="그룹 46935" style="opacity:.2">
                <path data-name="패스 61314" d="M179.15 463.008v-4.047l3.4-3.584.605-.541a.867.867 0 0 1 .57-.214h14.294v20.323a3.429 3.429 0 0 1-3.43 3.43H179.15z" transform="translate(-168.87 -440.911)" style="fill:#05f"/>
            </g>
            <g data-name="그룹 46936">
                <path data-name="패스 61315" d="M185.8 460.583V456.9l3.087-3.258.528-.472a.865.865 0 0 1 .569-.214h12.966v18.171a3.435 3.435 0 0 1-3.43 3.43H185.8z" transform="translate(-172.088 -440.107)" style="fill:#fff"/>
            </g>
            <g data-name="그룹 46937">
                <path data-name="패스 61316" d="M206.559 475.81h-39.445a.428.428 0 0 1-.429-.429v-39.444a.429.429 0 0 1 .429-.429h39.445a.428.428 0 0 1 .429.429v39.445a.428.428 0 0 1-.429.428zm-39.016-.857h38.587v-38.588h-38.588z" transform="translate(-162.836 -431.659)" style="fill:#04c"/>
            </g>
            <g data-name="그룹 46938">
                <path data-name="패스 61317" d="M190.321 452.558v-.429h-.429v.429zM185.4 456.5l-.312-.292-.118.12v.171zm17.15-3.944h.429a.427.427 0 0 0-.429-.429zm-12.225 4.176v.429a.426.426 0 0 0 .429-.429zm-2.868-.429a.432.432 0 0 0-.429.429.427.427 0 0 0 .429.429zm1.34-2.77a.422.422 0 0 0-.016-.6.429.429 0 0 0-.606.017zm-3.4 20.623h-.429a.432.432 0 0 0 .429.429zm-.429-17.656v3.679h.858V456.5zm18.008.823v-4.768h-.857v4.768zm-.429-5.2h-12.226v.857h12.225zm-12.654.429v4.176h.857v-4.176zm.429 3.747h-2.868v.858h2.868zm-4.614.489 3.087-3.258-.622-.583-3.087 3.259zm16.41.532v13.4h.857v-13.4zm-3 16.4H185.4v.857h13.72zm-13.291.429v-13.968h-.858v13.977zm16.293-3.43a3 3 0 0 1-3 3v.857a3.862 3.862 0 0 0 3.859-3.859z" transform="translate(-171.686 -439.705)" style="fill:#04c"/>
            </g>
            <g data-name="그룹 46939" style="opacity:.6">
                <path data-name="패스 61318" d="M199.254 467.944h-4.716a.429.429 0 1 1 0-.857h4.716a.429.429 0 1 1 0 .857z" transform="translate(-176.111 -446.945)" style="fill:#ff6b00"/>
            </g>
            <g data-name="그룹 46940" style="opacity:.6">
                <path data-name="패스 61319" d="M199.254 477.916h-4.716a.429.429 0 1 1 0-.857h4.716a.429.429 0 1 1 0 .857z" transform="translate(-176.111 -451.773)" style="fill:#ff6b00"/>
            </g>
            <g data-name="그룹 46941" style="opacity:.6">
                <path data-name="패스 61320" d="M201.4 472.93h-6.86a.429.429 0 1 1 0-.857h6.86a.429.429 0 1 1 0 .857z" transform="translate(-176.111 -449.359)" style="fill:#ff6b00"/>
            </g>
            <g data-name="그룹 46942">
                <path data-name="패스 61321" d="M218.177 460.428a2.24 2.24 0 0 1 3.175-.052 2.244 2.244 0 0 1 .053 3.173l-6.674 6.9a8.927 8.927 0 0 1-4.334 2.47l-1.526.36.311-1.535a8.914 8.914 0 0 1 2.321-4.416z" transform="translate(-183.257 -443.39)" style="fill:#fff"/>
                <path data-name="패스 61322" d="M208.469 473.308a.429.429 0 0 1-.42-.514l.311-1.535a9.346 9.346 0 0 1 2.433-4.627l6.675-6.9a2.66 2.66 0 0 1 1.879-.816 2.747 2.747 0 0 1 1.9.755 2.672 2.672 0 0 1 .063 3.779l-6.674 6.9a9.34 9.34 0 0 1-4.542 2.588l-1.527.36a.406.406 0 0 1-.098.01zm10.92-13.539h-.029a1.8 1.8 0 0 0-1.276.554l-6.674 6.9a8.48 8.48 0 0 0-2.209 4.2l-.178.879.874-.206a8.482 8.482 0 0 0 4.124-2.351l6.674-6.9a1.818 1.818 0 0 0-1.305-3.08z" transform="translate(-182.855 -442.988)" style="fill:#04c"/>
            </g>
        </g>
    </g>
</svg>
