<svg xmlns="http://www.w3.org/2000/svg" width="48" height="48" viewBox="0 0 48 48">
    <g data-name="그룹 46867">
        <path data-name="사각형 25544" transform="translate(1 1)" style="fill:none" d="M0 0h23v23H0z"/>
        <g data-name="그룹 46902">
            <path data-name="사각형 25546" style="fill:none" d="M0 0h48v48H0z"/>
            <g data-name="그룹 46963">
                <g data-name="그룹 46950">
                    <path data-name="패스 61323" d="M322.993 460.54v-3.658l3.07-3.239.525-.469a.86.86 0 0 1 .566-.213h12.891v18.066a3.415 3.415 0 0 1-3.41 3.41h-13.642z" transform="translate(-309.206 -440.028)" style="fill:#fff"/>
                </g>
                <g data-name="그룹 46951" style="opacity:.2">
                    <path data-name="패스 61324" d="M316.345 462.96v-4.024l3.376-3.564.6-.538a.861.861 0 0 1 .566-.213H335.1v20.207a3.41 3.41 0 0 1-3.41 3.41h-15.345z" transform="translate(-305.963 -440.842)" style="fill:#05f"/>
                </g>
                <g data-name="그룹 46952">
                    <path data-name="패스 61325" d="M322.993 460.54v-3.658l3.07-3.239.525-.469a.86.86 0 0 1 .566-.213h12.891v18.066a3.415 3.415 0 0 1-3.41 3.41h-13.642z" transform="translate(-309.206 -440.028)" style="fill:#fff"/>
                </g>
                <g data-name="그룹 46953">
                    <path data-name="패스 61326" d="M343.484 475.538h-39.178a.425.425 0 0 1-.426-.426v-39.178a.425.425 0 0 1 .426-.426h39.178a.426.426 0 0 1 .426.426v39.178a.425.425 0 0 1-.426.426zm-38.752-.852h38.327V436.36h-38.327z" transform="translate(-299.88 -431.508)" style="fill:#04c"/>
                </g>
                <g data-name="그룹 46956">
                    <g data-name="그룹 46954" style="opacity:.2">
                        <path data-name="패스 61327" d="m337.952 466.735 7.673-3.8 7.674 3.8v5.815a9.8 9.8 0 0 1-4.915 6.778l-2.758 1.509-3.183-1.646a8.353 8.353 0 0 1-4.491-6.642z" transform="translate(-316.504 -444.891)" style="fill:#05f"/>
                    </g>
                    <g data-name="그룹 46955">
                        <path data-name="패스 61328" d="M345.22 480.858a.425.425 0 0 1-.2-.048l-3.182-1.645a8.741 8.741 0 0 1-4.72-6.981v-5.855a.426.426 0 0 1 .237-.382l7.673-3.8a.431.431 0 0 1 .379 0l7.673 3.8a.427.427 0 0 1 .237.382v5.815a10.207 10.207 0 0 1-5.136 7.152l-2.759 1.509a.426.426 0 0 1-.202.053zm-7.247-14.263v5.55a7.88 7.88 0 0 0 4.26 6.263l2.981 1.542 2.559-1.4a9.343 9.343 0 0 0 4.7-6.482l-.007-5.472L345.22 463z" transform="translate(-316.099 -444.487)" style="fill:#04c"/>
                    </g>
                </g>
                <g data-name="그룹 46957">
                    <path data-name="패스 61329" d="M327.486 452.555v-.426h-.426v.426zm-4.9 3.922-.309-.29-.117.12v.17zm16.626-.034a.426.426 0 1 0 .853 0zm.426-3.888h.426a.424.424 0 0 0-.426-.426zm-12.154 4.152v.426a.424.424 0 0 0 .426-.426zm-2.851-.426a.43.43 0 0 0-.426.426.424.424 0 0 0 .426.426zm1.333-2.754a.42.42 0 0 0-.016-.6.427.427 0 0 0-.6.017zm-3.379 20.5h-.426a.43.43 0 0 0 .426.426zm8.952.426a.43.43 0 0 0 .426-.426.424.424 0 0 0-.426-.426zm-9.379-17.981v3.658h.853v-3.658zm17.9-.034v-3.888h-.853v3.888zm-.426-4.314h-12.148v.853h12.154zm-12.581.426v4.152h.853v-4.152zm.426 3.726h-2.851v.853h2.851zm-4.588.486 3.069-3.239-.619-.58-3.069 3.24zm.116 17.265v-13.9h-.853v13.9zm-.426.426h8.952v-.853h-8.952z" transform="translate(-308.801 -439.623)" style="fill:#04c"/>
                </g>
                <g data-name="그룹 46958" transform="translate(24.008 21.879)">
                    <circle data-name="타원 16084" cx="4.689" cy="4.689" r="4.689" transform="translate(.426 .427)" style="fill:#fff"/>
                    <path data-name="패스 61330" d="M348.053 480.642a5.116 5.116 0 1 1 5.116-5.116 5.121 5.121 0 0 1-5.116 5.116zm0-9.379a4.263 4.263 0 1 0 4.263 4.263 4.268 4.268 0 0 0-4.263-4.262z" transform="translate(-342.938 -470.411)" style="fill:#04c"/>
                </g>
                <g data-name="그룹 46959">
                    <path data-name="패스 61331" d="M333.8 477.891a8.934 8.934 0 0 0 5.115 0v2.909a6.766 6.766 0 0 1-5.115 0z" transform="translate(-314.469 -452.174)" style="fill:#fff"/>
                    <path data-name="패스 61332" d="M335.941 481.323a8.242 8.242 0 0 1-2.685-.526.425.425 0 0 1-.29-.4v-2.908a.425.425 0 0 1 .527-.413 8.548 8.548 0 0 0 4.909 0 .427.427 0 0 1 .532.413v2.908a.428.428 0 0 1-.291.4 8.4 8.4 0 0 1-2.702.526zm-2.123-1.239a6.1 6.1 0 0 0 4.263 0v-2.057a8.813 8.813 0 0 1-4.263 0z" transform="translate(-314.064 -451.768)" style="fill:#04c"/>
                </g>
                <g data-name="그룹 46960">
                    <path data-name="패스 61333" d="M367.167 477.891a8.933 8.933 0 0 1-5.115 0v2.909a6.766 6.766 0 0 0 5.115 0z" transform="translate(-328.253 -452.174)" style="fill:#fff"/>
                    <path data-name="패스 61334" d="M364.214 481.323a8.4 8.4 0 0 1-2.7-.525.427.427 0 0 1-.291-.4v-2.908a.427.427 0 0 1 .532-.413 8.531 8.531 0 0 0 4.909 0 .425.425 0 0 1 .527.413v2.908a.425.425 0 0 1-.29.4 8.248 8.248 0 0 1-2.687.525zm-2.14-1.24a6.1 6.1 0 0 0 4.263 0v-2.062a8.813 8.813 0 0 1-4.263 0z" transform="translate(-327.848 -451.769)" style="fill:#04c"/>
                </g>
                <g data-name="그룹 46962" style="opacity:.8">
                    <g data-name="그룹 46961">
                        <path data-name="패스 61335" d="M350.457 477.017v1.91h.956a1.06 1.06 0 0 0 .37-.068.9.9 0 0 0 .3-.213.964.964 0 0 0 .2-.3.951.951 0 0 0 .077-.375.88.88 0 0 0-.077-.366.908.908 0 0 0-.2-.307 1.01 1.01 0 0 0-.3-.2.906.906 0 0 0-.37-.076zm0 3.82h-.957v-4.775h1.912a1.985 1.985 0 0 1 .506.068 1.706 1.706 0 0 1 .453.2 1.607 1.607 0 0 1 .387.3 1.8 1.8 0 0 1 .3.384 1.943 1.943 0 0 1 .193.461 1.8 1.8 0 0 1 .07.5 1.847 1.847 0 0 1-.15.742 1.9 1.9 0 0 1-.41.605 1.736 1.736 0 0 1-.609.409 1.8 1.8 0 0 1-.74.153h-.956z" transform="translate(-322.125 -451.283)" style="fill:#ff6b00"/>
                    </g>
                </g>
            </g>
        </g>
    </g>
</svg>
