<svg xmlns="http://www.w3.org/2000/svg" width="48" height="48" viewBox="0 0 48 48">
    <g data-name="그룹 46867">
        <path data-name="사각형 25544" transform="translate(1 1)" style="fill:none" d="M0 0h23v23H0z"/>
        <g data-name="그룹 46902">
            <path data-name="사각형 25546" style="fill:none" d="M0 0h48v48H0z"/>
            <g data-name="그룹 47009">
                <g data-name="그룹 46998">
                    <path data-name="패스 61358" d="M1441.31 475.808h-39.443a.428.428 0 0 1-.429-.429v-39.442a.429.429 0 0 1 .429-.429h39.443a.428.428 0 0 1 .429.429v39.443a.428.428 0 0 1-.429.428zm-39.014-.857h38.585v-38.586H1402.3z" transform="translate(-1397.589 -431.658)" style="fill:#04c"/>
                </g>
                <g data-name="그룹 46999">
                    <path data-name="패스 61359" d="M1428.7 475.991a.421.421 0 0 1-.187-.045l-4.835-2.42a13.428 13.428 0 0 1-7.275-10.732v-9.21a.431.431 0 0 1 .235-.385l11.876-6.011a.415.415 0 0 1 .378 0l11.876 6.011a.431.431 0 0 1 .235.385v9.171a15.4 15.4 0 0 1-7.929 10.965l-4.174 2.222a.416.416 0 0 1-.2.049zm-11.452-22.14v8.9a12.551 12.551 0 0 0 6.8 10l4.641 2.323 3.982-2.12a14.53 14.53 0 0 0 7.483-10.282l-.007-8.825-11.452-5.8z" transform="translate(-1404.697 -437.354)" style="fill:#04c"/>
                </g>
                <g data-name="그룹 47000" style="opacity:.1">
                    <path data-name="패스 61360" d="M1440.841 468.074a6.275 6.275 0 0 1-.051.805 2.893 2.893 0 0 0-5.564.043h-.076a2.9 2.9 0 0 0-5.582 0h-.076a2.894 2.894 0 0 0-5.565-.043 6.275 6.275 0 0 1-.051-.805c0-4.216 3.8-7.635 8.482-7.635s8.483 3.418 8.483 7.635z" transform="translate(-1408.359 -443.69)" style="fill:#05f;fill-rule:evenodd"/>
                </g>
                <g data-name="그룹 47001">
                    <path data-name="패스 61361" d="m1440.383 468.472-.416.085a.431.431 0 0 0 .441.339.419.419 0 0 0 .4-.374zm-5.565.043v.424a.42.42 0 0 0 .416-.348zm-.076 0-.424.076a.435.435 0 0 0 .424.348zm-5.582 0v.424a.42.42 0 0 0 .416-.348zm-.076 0-.416.076a.42.42 0 0 0 .416.348zm-5.565-.043-.424.051a.426.426 0 0 0 .4.374.416.416 0 0 0 .432-.339zm17.287.051a7.09 7.09 0 0 0 .051-.856h-.848a7.611 7.611 0 0 1-.042.763zm-3.2-1.7a2.339 2.339 0 0 1 2.358 1.739l.831-.17a3.17 3.17 0 0 0-3.19-2.417zm-2.375 1.773a2.339 2.339 0 0 1 2.375-1.773v-.848a3.177 3.177 0 0 0-3.206 2.468zm-.492.348h.076v-.848h-.076zm-2.791-2.121a2.331 2.331 0 0 1 2.367 1.773l.839-.153a3.184 3.184 0 0 0-3.207-2.468zm-2.375 1.773a2.339 2.339 0 0 1 2.375-1.773v-.848a3.177 3.177 0 0 0-3.206 2.468zm-.492.348h.076v-.848h-.076zm-2.791-2.121a2.339 2.339 0 0 1 2.375 1.773l.831-.153a3.177 3.177 0 0 0-3.207-2.468zm-2.367 1.739a2.356 2.356 0 0 1 2.367-1.739v-.848a3.183 3.183 0 0 0-3.189 2.417zm-.882-.891a7.09 7.09 0 0 0 .051.856l.84-.1a7.353 7.353 0 0 1-.042-.755zm8.906-8.059c-4.877 0-8.906 3.571-8.906 8.059h.848c0-3.945 3.562-7.211 8.058-7.211zm8.907 8.059c0-4.488-4.029-8.059-8.907-8.059v.848c4.5 0 8.059 3.266 8.059 7.211z" transform="translate(-1407.952 -443.284)" style="fill:#04c"/>
                </g>
                <g data-name="그룹 47002">
                    <path data-name="패스 61362" d="M1440.09 459.236a.424.424 0 0 1-.424-.424v-1.272a.424.424 0 1 1 .848 0v1.272a.424.424 0 0 1-.424.424z" transform="translate(-1416.09 -442.111)" style="fill:#04c"/>
                </g>
                <g data-name="그룹 47003" style="opacity:.8">
                    <path data-name="패스 61363" d="M1441.6 487.9a.424.424 0 0 1-.424-.424v-3.443a.424.424 0 1 1 .848 0v3.443a.424.424 0 0 1-.424.424z" transform="translate(-1416.822 -454.912)" style="fill:#ff6b00"/>
                </g>
                <g data-name="그룹 47004" style="opacity:.8">
                    <path data-name="패스 61364" d="M1440.226 484.457h-1.433a.424.424 0 0 1 0-.848h1.433a.424.424 0 0 1 0 .848z" transform="translate(-1415.455 -454.938)" style="fill:#ff6b00"/>
                </g>
                <g data-name="그룹 47005" style="opacity:.8">
                    <path data-name="패스 61365" d="M1441.66 491.2h-2.867a.424.424 0 0 1 0-.848h2.867a.424.424 0 0 1 0 .848z" transform="translate(-1415.446 -458.203)" style="fill:#ff6b00"/>
                </g>
                <g data-name="그룹 47008">
                    <g data-name="그룹 47006" transform="translate(23.157 25.732)">
                        <circle data-name="타원 16088" cx=".954" cy=".954" r=".954" style="fill:#fff"/>
                    </g>
                    <g data-name="그룹 47007" style="opacity:.8">
                        <path data-name="패스 61366" d="M1439.391 479.824a1.379 1.379 0 1 1 1.379-1.379 1.38 1.38 0 0 1-1.379 1.379zm0-1.909a.53.53 0 1 0 .53.53.531.531 0 0 0-.53-.53z" transform="translate(-1415.279 -451.76)" style="fill:#ff6b00"/>
                    </g>
                </g>
            </g>
        </g>
    </g>
</svg>
